<?xml version="1.0" encoding="utf-8"?>
<!-- Generator: Adobe Illustrator 27.5.0, SVG Export Plug-In . SVG Version: 6.00 Build 0)  -->
<svg version="1.1" xmlns="http://www.w3.org/2000/svg" xmlns:xlink="http://www.w3.org/1999/xlink" x="0px" y="0px"
	 viewBox="0 0 500 500" style="enable-background:new 0 0 500 500;" xml:space="preserve">
<g id="BACKGROUND">
	<g>
		<defs>
			<rect id="SVGID_1_" width="500" height="500"/>
		</defs>
		<clipPath id="SVGID_00000140011422894879680560000017882262728879274170_">
			<use xlink:href="#SVGID_1_"  style="overflow:visible;"/>
		</clipPath>
		<g style="clip-path:url(#SVGID_00000140011422894879680560000017882262728879274170_);">
			<rect style="fill:#E4EFF7;" width="500" height="500"/>
			<g>
				
					<line style="fill:none;stroke:#BCDAEA;stroke-width:1.9168;stroke-miterlimit:10;" x1="25.246" y1="-16.706" x2="25.246" y2="423.795"/>
				
					<line style="fill:none;stroke:#BCDAEA;stroke-width:1.9168;stroke-miterlimit:10;" x1="70.196" y1="-16.626" x2="70.196" y2="423.875"/>
				
					<line style="fill:none;stroke:#BCDAEA;stroke-width:1.9168;stroke-miterlimit:10;" x1="115.147" y1="-16.545" x2="115.147" y2="423.956"/>
				
					<line style="fill:none;stroke:#BCDAEA;stroke-width:1.9168;stroke-miterlimit:10;" x1="160.098" y1="-16.465" x2="160.098" y2="424.036"/>
				
					<line style="fill:none;stroke:#BCDAEA;stroke-width:1.9168;stroke-miterlimit:10;" x1="205.049" y1="-16.384" x2="205.049" y2="424.117"/>
				
					<line style="fill:none;stroke:#BCDAEA;stroke-width:1.9168;stroke-miterlimit:10;" x1="250" y1="-16.304" x2="250" y2="424.198"/>
				
					<line style="fill:none;stroke:#BCDAEA;stroke-width:1.9168;stroke-miterlimit:10;" x1="294.951" y1="-16.223" x2="294.951" y2="424.278"/>
				
					<line style="fill:none;stroke:#BCDAEA;stroke-width:1.9168;stroke-miterlimit:10;" x1="339.902" y1="-16.143" x2="339.902" y2="424.359"/>
				
					<line style="fill:none;stroke:#BCDAEA;stroke-width:1.9168;stroke-miterlimit:10;" x1="384.853" y1="-16.062" x2="384.853" y2="424.439"/>
				
					<line style="fill:none;stroke:#BCDAEA;stroke-width:1.9168;stroke-miterlimit:10;" x1="429.803" y1="-15.982" x2="429.803" y2="424.52"/>
				
					<line style="fill:none;stroke:#BCDAEA;stroke-width:1.9168;stroke-miterlimit:10;" x1="474.754" y1="-15.901" x2="474.754" y2="424.6"/>
			</g>
			<g>
				<rect x="331.977" y="84.844" style="fill:#FFFFFF;" width="129.977" height="87.602"/>
				<rect x="342.368" y="104.354" style="fill:#654357;" width="12.596" height="4.04"/>
				<rect x="358.487" y="104.354" style="fill:#654357;" width="12.596" height="4.04"/>
				<rect x="374.607" y="104.354" style="fill:#654357;" width="12.596" height="4.04"/>
				<rect x="390.726" y="104.354" style="fill:#654357;" width="12.596" height="4.04"/>
				<rect x="406.845" y="104.354" style="fill:#654357;" width="12.596" height="4.04"/>
				<rect x="422.965" y="104.354" style="fill:#654357;" width="12.596" height="4.04"/>
				<rect x="439.084" y="104.354" style="fill:#EF4563;" width="12.596" height="4.04"/>
				<g>
					<circle style="fill:#654357;" cx="348.314" cy="117.14" r="4.075"/>
					<circle style="fill:#654357;" cx="364.728" cy="117.14" r="4.075"/>
					<circle style="fill:#654357;" cx="381.142" cy="117.14" r="4.075"/>
					<path style="fill:#654357;" d="M401.632,117.14c0,2.251-1.825,4.075-4.075,4.075c-2.251,0-4.075-1.825-4.075-4.075
						c0-2.251,1.825-4.075,4.075-4.075C399.807,113.065,401.632,114.889,401.632,117.14z"/>
					<circle style="fill:#654357;" cx="413.281" cy="117.14" r="4.075"/>
					<path style="fill:#654357;" d="M433.656,117.14c0,2.251-1.825,4.075-4.075,4.075c-2.251,0-4.075-1.825-4.075-4.075
						c0-2.251,1.825-4.075,4.075-4.075C431.831,113.065,433.656,114.889,433.656,117.14z"/>
					<path style="fill:#EF4563;" d="M449.726,117.14c0,2.251-1.825,4.075-4.075,4.075c-2.251,0-4.075-1.825-4.075-4.075
						c0-2.251,1.825-4.075,4.075-4.075C447.901,113.065,449.726,114.889,449.726,117.14z"/>
				</g>
				<g>
					<path style="fill:#654357;" d="M352.39,129.651c0,2.251-1.824,4.075-4.075,4.075c-2.251,0-4.075-1.825-4.075-4.075
						c0-2.251,1.825-4.075,4.075-4.075C350.565,125.576,352.39,127.401,352.39,129.651z"/>
					<path style="fill:#654357;" d="M368.804,129.651c0,2.251-1.825,4.075-4.075,4.075c-2.251,0-4.075-1.825-4.075-4.075
						c0-2.251,1.825-4.075,4.075-4.075C366.979,125.576,368.804,127.401,368.804,129.651z"/>
					<path style="fill:#EF4563;" d="M385.218,129.651c0,2.251-1.825,4.075-4.075,4.075c-2.251,0-4.075-1.825-4.075-4.075
						c0-2.251,1.825-4.075,4.075-4.075C383.393,125.576,385.218,127.401,385.218,129.651z"/>
					<path style="fill:#654357;" d="M401.632,129.651c0,2.251-1.825,4.075-4.075,4.075c-2.251,0-4.075-1.825-4.075-4.075
						c0-2.251,1.825-4.075,4.075-4.075C399.807,125.576,401.632,127.401,401.632,129.651z"/>
					<path style="fill:#654357;" d="M417.357,129.651c0,2.251-1.825,4.075-4.075,4.075s-4.075-1.825-4.075-4.075
						c0-2.251,1.825-4.075,4.075-4.075S417.357,127.401,417.357,129.651z"/>
					<path style="fill:#654357;" d="M433.656,129.651c0,2.251-1.825,4.075-4.075,4.075c-2.251,0-4.075-1.825-4.075-4.075
						c0-2.251,1.825-4.075,4.075-4.075C431.831,125.576,433.656,127.401,433.656,129.651z"/>
					<path style="fill:#EF4563;" d="M449.726,129.651c0,2.251-1.825,4.075-4.075,4.075c-2.251,0-4.075-1.825-4.075-4.075
						c0-2.251,1.825-4.075,4.075-4.075C447.901,125.576,449.726,127.401,449.726,129.651z"/>
				</g>
				<g>
					<path style="fill:#654357;" d="M352.39,142.163c0,2.251-1.824,4.075-4.075,4.075c-2.251,0-4.075-1.825-4.075-4.075
						c0-2.251,1.825-4.075,4.075-4.075C350.565,138.087,352.39,139.912,352.39,142.163z"/>
					<path style="fill:#654357;" d="M368.804,142.163c0,2.251-1.825,4.075-4.075,4.075c-2.251,0-4.075-1.825-4.075-4.075
						c0-2.251,1.825-4.075,4.075-4.075C366.979,138.087,368.804,139.912,368.804,142.163z"/>
					<path style="fill:#654357;" d="M385.218,142.163c0,2.251-1.825,4.075-4.075,4.075c-2.251,0-4.075-1.825-4.075-4.075
						c0-2.251,1.825-4.075,4.075-4.075C383.393,138.087,385.218,139.912,385.218,142.163z"/>
					<path style="fill:#654357;" d="M401.632,142.163c0,2.251-1.825,4.075-4.075,4.075c-2.251,0-4.075-1.825-4.075-4.075
						c0-2.251,1.825-4.075,4.075-4.075C399.807,138.087,401.632,139.912,401.632,142.163z"/>
					<path style="fill:#654357;" d="M417.357,142.163c0,2.251-1.825,4.075-4.075,4.075s-4.075-1.825-4.075-4.075
						c0-2.251,1.825-4.075,4.075-4.075S417.357,139.912,417.357,142.163z"/>
					<path style="fill:#654357;" d="M433.656,142.163c0,2.251-1.825,4.075-4.075,4.075c-2.251,0-4.075-1.825-4.075-4.075
						c0-2.251,1.825-4.075,4.075-4.075C431.831,138.087,433.656,139.912,433.656,142.163z"/>
					<path style="fill:#EF4563;" d="M449.726,142.163c0,2.251-1.825,4.075-4.075,4.075c-2.251,0-4.075-1.825-4.075-4.075
						c0-2.251,1.825-4.075,4.075-4.075C447.901,138.087,449.726,139.912,449.726,142.163z"/>
				</g>
				<g>
					<circle style="fill:#654357;" cx="348.314" cy="154.674" r="4.075"/>
					<circle style="fill:#654357;" cx="364.728" cy="154.674" r="4.075"/>
					<circle style="fill:#654357;" cx="381.142" cy="154.674" r="4.075"/>
					<path style="fill:#654357;" d="M401.632,154.674c0,2.251-1.825,4.075-4.075,4.075c-2.251,0-4.075-1.825-4.075-4.075
						s1.825-4.075,4.075-4.075C399.807,150.599,401.632,152.423,401.632,154.674z"/>
				</g>
			</g>
			<g>
				<g>
					<g>
						<path style="fill:#ABCC7D;" d="M20.669,327.476c1.351,4.416-2.42,8.018,0.472,12.69c2.893,4.673,8.858,2.901,10.011,5.877
							c1.153,2.975-0.857,6.98,1.32,9.347c2.177,2.367,6.893,1.817,8.917,4.392c0.067,0.085,0.129,0.173,0.187,0.264
							c0.249,0.388,0.439,0.808,0.616,1.228c0.222,0.527,0.418,1.065,0.611,1.602c0.216,0.605,0.428,1.212,0.648,1.816
							c0.229,0.629,0.468,1.256,0.73,1.874c0.257,0.603,0.535,1.197,0.856,1.771c0.296,0.53,0.63,1.044,1.026,1.512
							c0.355,0.419,0.764,0.802,1.242,1.095c0.452,0.276,0.964,0.461,1.5,0.518c0.344,0.037,0.696,0.03,1.038-0.028
							c0.21-0.034,0.416-0.088,0.614-0.162c0.164-0.06,0.322-0.136,0.472-0.224c0.078-0.046,0.154-0.095,0.228-0.146
							c0.386-0.265,0.72-0.594,0.968-0.982c0.278-0.438,0.437-0.932,0.504-1.437c0.073-0.551,0.041-1.111-0.044-1.659
							c-0.094-0.61-0.256-1.209-0.448-1.797c-0.206-0.626-0.449-1.241-0.709-1.848c-0.262-0.61-0.542-1.213-0.827-1.813
							c-0.267-0.564-0.54-1.126-0.801-1.693c-0.225-0.49-0.446-0.982-0.631-1.487c-0.142-0.385-0.272-0.782-0.318-1.189
							c-0.366-3.194,3.482-5.84,3.377-8.98s-4.45-4.773-5.741-7.697c-1.292-2.924,4.348-5.482,3.113-10.774
							c-1.235-5.291-6.581-5.491-8.761-9.598c-2.18-4.107,0.175-8.239-0.08-11.55c-0.255-3.311-2.547-4.802-5.671-5.604
							c-3.123-0.803-4.448-0.535-7.862-5.695c-3.413-5.159-6.984-7.233-9.968-5.968c-3.093,1.003-4.22,4.83-3.017,10.814
							c1.203,5.985,0.041,6.646-1.67,9.252c-1.712,2.606-2.32,5.18-0.131,7.769C14.628,321.556,19.318,323.06,20.669,327.476z"/>
						<path style="fill:#8CB661;" d="M20.669,327.476c1.351,4.416-2.42,8.018,0.472,12.69c2.893,4.673,8.858,2.901,10.011,5.877
							c1.153,2.975-0.857,6.98,1.32,9.347c2.177,2.367,6.893,1.817,8.917,4.392c0.067,0.085,0.129,0.173,0.187,0.264
							c0.249,0.388,0.439,0.808,0.616,1.228c0.222,0.527,0.418,1.065,0.611,1.602c0.216,0.605,0.428,1.212,0.648,1.816
							c0.229,0.629,0.468,1.256,0.73,1.874c0.257,0.603,0.535,1.197,0.856,1.771c0.296,0.53,0.63,1.044,1.026,1.512
							c0.355,0.419,0.764,0.802,1.242,1.095c0.452,0.276,0.964,0.461,1.5,0.518c0.344,0.037,0.696,0.03,1.038-0.028
							c0.21-0.034,0.416-0.088,0.614-0.162l-33.199-80.142c-3.093,1.003-4.22,4.83-3.017,10.814c1.203,5.985,0.041,6.646-1.67,9.252
							c-1.712,2.606-2.32,5.18-0.131,7.769C14.628,321.556,19.318,323.06,20.669,327.476z"/>
					</g>
					<g>
						<path style="fill:#8CB661;" d="M93.367,326.517c-1.351,4.416,2.42,8.018-0.472,12.69c-2.893,4.673-8.858,2.901-10.011,5.877
							c-1.153,2.975,0.857,6.98-1.32,9.347c-2.176,2.367-6.893,1.817-8.917,4.392c-0.067,0.085-0.129,0.173-0.187,0.264
							c-0.249,0.387-0.439,0.808-0.616,1.228c-0.222,0.527-0.418,1.065-0.611,1.602c-0.216,0.605-0.428,1.212-0.648,1.816
							c-0.229,0.629-0.467,1.256-0.729,1.874c-0.257,0.603-0.535,1.197-0.856,1.772c-0.296,0.53-0.63,1.044-1.026,1.512
							c-0.355,0.419-0.764,0.802-1.242,1.095c-0.452,0.276-0.964,0.461-1.5,0.518c-0.344,0.037-0.696,0.03-1.038-0.027
							c-0.21-0.034-0.416-0.088-0.614-0.162c-0.164-0.06-0.322-0.136-0.472-0.224c-0.078-0.046-0.154-0.095-0.228-0.146
							c-0.386-0.265-0.72-0.594-0.968-0.983c-0.278-0.437-0.437-0.932-0.504-1.437c-0.073-0.551-0.041-1.111,0.044-1.659
							c0.095-0.61,0.255-1.209,0.448-1.797c0.206-0.626,0.449-1.241,0.709-1.848c0.262-0.61,0.542-1.213,0.827-1.813
							c0.267-0.564,0.54-1.126,0.801-1.693c0.225-0.49,0.446-0.982,0.631-1.486c0.142-0.385,0.272-0.782,0.318-1.19
							c0.366-3.194-3.482-5.84-3.377-8.98c0.104-3.14,4.45-4.773,5.741-7.697c1.292-2.924-4.348-5.482-3.113-10.774
							c1.235-5.291,6.581-5.491,8.76-9.598c2.18-4.106-0.175-8.239,0.08-11.55c0.255-3.311,2.547-4.802,5.671-5.604
							c3.123-0.803,4.448-0.535,7.862-5.695c3.413-5.159,6.984-7.233,9.968-5.968c3.093,1.004,4.22,4.83,3.017,10.814
							c-1.204,5.985-0.041,6.645,1.67,9.252c1.712,2.606,2.32,5.18,0.131,7.769C99.408,320.597,94.718,322.101,93.367,326.517z"/>
						<path style="fill:#ABCC7D;" d="M93.367,326.517c-1.351,4.416,2.42,8.018-0.472,12.69c-2.893,4.673-8.858,2.901-10.011,5.877
							c-1.153,2.975,0.857,6.98-1.32,9.347c-2.176,2.367-6.893,1.817-8.917,4.392c-0.067,0.085-0.129,0.173-0.187,0.264
							c-0.249,0.387-0.439,0.808-0.616,1.228c-0.222,0.527-0.418,1.065-0.611,1.602c-0.216,0.605-0.428,1.212-0.648,1.816
							c-0.229,0.629-0.467,1.256-0.729,1.874c-0.257,0.603-0.535,1.197-0.856,1.772c-0.296,0.53-0.63,1.044-1.026,1.512
							c-0.355,0.419-0.764,0.802-1.242,1.095c-0.452,0.276-0.964,0.461-1.5,0.518c-0.344,0.037-0.696,0.03-1.038-0.027
							c-0.21-0.034-0.416-0.088-0.614-0.162l33.199-80.142c3.093,1.004,4.22,4.83,3.017,10.814c-1.204,5.985-0.041,6.645,1.67,9.252
							c1.712,2.606,2.32,5.18,0.131,7.769C99.408,320.597,94.718,322.101,93.367,326.517z"/>
					</g>
					<g>
						<path style="fill:#8CB661;" d="M69.481,311.861c0.529,5.441,6.35,7.869,5.292,14.231c-1.058,6.362-8.468,6.865-8.379,10.632
							c0.088,3.767,4.146,7.367,2.823,10.883c-1.323,3.516-6.791,4.855-7.85,8.538c-0.035,0.121-0.063,0.245-0.086,0.369
							c-0.097,0.531-0.116,1.075-0.118,1.613c-0.004,0.674,0.026,1.35,0.058,2.023c0.038,0.759,0.082,1.518,0.116,2.276
							c0.035,0.791,0.058,1.582,0.052,2.373c-0.008,0.772-0.043,1.545-0.136,2.313c-0.085,0.708-0.219,1.415-0.442,2.096
							c-0.201,0.61-0.478,1.203-0.872,1.723c-0.374,0.492-0.855,0.908-1.421,1.192c-0.363,0.183-0.756,0.32-1.161,0.398
							c-0.248,0.049-0.5,0.074-0.753,0.074c-0.209,0.001-0.418-0.017-0.625-0.053c-0.107-0.019-0.214-0.042-0.319-0.067
							c-0.548-0.134-1.069-0.36-1.521-0.687c-0.508-0.369-0.91-0.85-1.216-1.382c-0.333-0.579-0.555-1.212-0.712-1.853
							c-0.175-0.714-0.271-1.442-0.328-2.172c-0.059-0.777-0.072-1.558-0.062-2.336c0.01-0.782,0.044-1.565,0.084-2.346
							c0.037-0.734,0.081-1.469,0.111-2.203c0.025-0.635,0.043-1.27,0.017-1.905c-0.019-0.484-0.057-0.977-0.193-1.447
							c-1.058-3.683-6.527-5.023-7.85-8.538c-1.323-3.516,2.735-7.116,2.823-10.883c0.089-3.767-7.321-4.269-8.379-10.632
							c-1.058-6.362,4.763-8.789,5.292-14.231c0.529-5.441-3.969-9.04-5.203-12.807c-1.235-3.767,0.617-6.362,3.704-8.538
							c3.086-2.177,4.675-2.428,6.086-9.544c1.411-7.115,4.41-10.882,8.29-10.715c3.881-0.167,6.881,3.6,8.291,10.715
							c1.411,7.116,2.999,7.367,6.086,9.544c3.087,2.176,4.939,4.771,3.704,8.538C73.45,302.821,68.952,306.42,69.481,311.861z"/>
						<path style="fill:#ABCC7D;" d="M69.481,311.861c0.529,5.441,6.35,7.869,5.292,14.231c-1.058,6.362-8.468,6.865-8.379,10.632
							c0.088,3.767,4.146,7.367,2.823,10.883c-1.323,3.516-6.791,4.855-7.85,8.538c-0.035,0.121-0.063,0.245-0.086,0.369
							c-0.097,0.531-0.116,1.075-0.118,1.613c-0.004,0.674,0.026,1.35,0.058,2.023c0.038,0.759,0.082,1.518,0.116,2.276
							c0.035,0.791,0.058,1.582,0.052,2.373c-0.008,0.772-0.043,1.545-0.136,2.313c-0.085,0.708-0.219,1.415-0.442,2.096
							c-0.201,0.61-0.478,1.203-0.872,1.723c-0.374,0.492-0.855,0.908-1.421,1.192c-0.363,0.183-0.756,0.32-1.161,0.398
							c-0.248,0.049-0.5,0.074-0.753,0.074v-102.34c3.881-0.167,6.881,3.6,8.291,10.715c1.411,7.116,2.999,7.367,6.086,9.544
							c3.087,2.176,4.939,4.771,3.704,8.538C73.45,302.821,68.952,306.42,69.481,311.861z"/>
					</g>
					<g>
						<polygon style="fill:#654357;" points="81.793,364.448 78.971,392.083 76.373,417.522 36.624,417.522 33.163,383.639 
							31.203,364.448 						"/>
						<path style="fill:#47293C;" d="M78.971,392.083l-2.598,25.439H36.624l-3.461-33.883c2.002-0.431,4.202-0.257,6.151,0.399
							c3.652,1.23,6.663,3.807,9.665,6.224c3.001,2.417,6.24,4.795,10.03,5.496c4.815,0.89,9.633-1.057,14.32-2.479
							C75.136,392.732,77.059,392.276,78.971,392.083z"/>
					</g>
				</g>
				<g>
					<g>
						<path style="fill:#ABCC7D;" d="M406.632,327.476c1.351,4.416-2.42,8.018,0.472,12.69c2.893,4.673,8.858,2.901,10.011,5.877
							c1.153,2.975-0.857,6.98,1.32,9.347c2.176,2.367,6.893,1.817,8.917,4.392c0.067,0.085,0.129,0.173,0.187,0.264
							c0.249,0.388,0.439,0.808,0.616,1.228c0.222,0.527,0.418,1.065,0.611,1.602c0.216,0.605,0.428,1.212,0.648,1.816
							c0.229,0.629,0.467,1.256,0.73,1.874c0.257,0.603,0.535,1.197,0.856,1.771c0.296,0.53,0.63,1.044,1.026,1.512
							c0.355,0.419,0.764,0.802,1.242,1.095c0.452,0.276,0.964,0.461,1.5,0.518c0.344,0.037,0.696,0.03,1.038-0.028
							c0.21-0.034,0.416-0.088,0.614-0.162c0.164-0.06,0.322-0.136,0.472-0.224c0.078-0.046,0.154-0.095,0.228-0.146
							c0.386-0.265,0.72-0.594,0.968-0.982c0.278-0.438,0.437-0.932,0.504-1.437c0.073-0.551,0.041-1.111-0.044-1.659
							c-0.095-0.61-0.256-1.209-0.448-1.797c-0.206-0.626-0.449-1.241-0.709-1.848c-0.262-0.61-0.542-1.213-0.827-1.813
							c-0.267-0.564-0.54-1.126-0.801-1.693c-0.225-0.49-0.446-0.982-0.631-1.487c-0.142-0.385-0.272-0.782-0.318-1.189
							c-0.366-3.194,3.482-5.84,3.378-8.98c-0.105-3.14-4.45-4.773-5.741-7.697c-1.292-2.924,4.348-5.482,3.113-10.774
							c-1.235-5.291-6.581-5.491-8.76-9.598c-2.18-4.107,0.175-8.239-0.08-11.55c-0.255-3.311-2.547-4.802-5.671-5.604
							c-3.123-0.803-4.448-0.535-7.862-5.695c-3.413-5.159-6.984-7.233-9.968-5.968c-3.093,1.003-4.22,4.83-3.017,10.814
							c1.203,5.985,0.041,6.646-1.67,9.252c-1.712,2.606-2.32,5.18-0.131,7.769C400.592,321.556,405.282,323.06,406.632,327.476z"/>
						<path style="fill:#8CB661;" d="M406.632,327.476c1.351,4.416-2.42,8.018,0.472,12.69c2.893,4.673,8.858,2.901,10.011,5.877
							c1.153,2.975-0.857,6.98,1.32,9.347c2.176,2.367,6.893,1.817,8.917,4.392c0.067,0.085,0.129,0.173,0.187,0.264
							c0.249,0.388,0.439,0.808,0.616,1.228c0.222,0.527,0.418,1.065,0.611,1.602c0.216,0.605,0.428,1.212,0.648,1.816
							c0.229,0.629,0.467,1.256,0.73,1.874c0.257,0.603,0.535,1.197,0.856,1.771c0.296,0.53,0.63,1.044,1.026,1.512
							c0.355,0.419,0.764,0.802,1.242,1.095c0.452,0.276,0.964,0.461,1.5,0.518c0.344,0.037,0.696,0.03,1.038-0.028
							c0.21-0.034,0.416-0.088,0.614-0.162l-33.199-80.142c-3.093,1.003-4.22,4.83-3.017,10.814c1.203,5.985,0.041,6.646-1.67,9.252
							c-1.712,2.606-2.32,5.18-0.131,7.769C400.592,321.556,405.282,323.06,406.632,327.476z"/>
					</g>
					<g>
						<path style="fill:#8CB661;" d="M479.331,326.517c-1.351,4.416,2.42,8.018-0.472,12.69c-2.893,4.673-8.858,2.901-10.011,5.877
							c-1.153,2.975,0.857,6.98-1.32,9.347c-2.177,2.367-6.893,1.817-8.917,4.392c-0.067,0.085-0.129,0.173-0.187,0.264
							c-0.249,0.387-0.439,0.808-0.616,1.228c-0.222,0.527-0.418,1.065-0.611,1.602c-0.216,0.605-0.428,1.212-0.648,1.816
							c-0.229,0.629-0.468,1.256-0.73,1.874c-0.257,0.603-0.535,1.197-0.856,1.772c-0.296,0.53-0.63,1.044-1.026,1.512
							c-0.355,0.419-0.764,0.802-1.242,1.095c-0.452,0.276-0.964,0.461-1.5,0.518c-0.344,0.037-0.696,0.03-1.038-0.027
							c-0.21-0.034-0.416-0.088-0.614-0.162c-0.164-0.06-0.322-0.136-0.472-0.224c-0.078-0.046-0.154-0.095-0.228-0.146
							c-0.386-0.265-0.72-0.594-0.968-0.983c-0.278-0.437-0.437-0.932-0.504-1.437c-0.073-0.551-0.041-1.111,0.044-1.659
							c0.095-0.61,0.255-1.209,0.448-1.797c0.206-0.626,0.449-1.241,0.709-1.848c0.262-0.61,0.542-1.213,0.827-1.813
							c0.267-0.564,0.54-1.126,0.801-1.693c0.225-0.49,0.446-0.982,0.631-1.486c0.142-0.385,0.272-0.782,0.318-1.19
							c0.366-3.194-3.482-5.84-3.378-8.98c0.104-3.14,4.45-4.773,5.741-7.697c1.291-2.924-4.348-5.482-3.113-10.774
							c1.235-5.291,6.581-5.491,8.76-9.598c2.18-4.106-0.175-8.239,0.08-11.55c0.255-3.311,2.547-4.802,5.671-5.604
							c3.123-0.803,4.448-0.535,7.862-5.695c3.413-5.159,6.984-7.233,9.968-5.968c3.093,1.004,4.22,4.83,3.017,10.814
							c-1.203,5.985-0.041,6.645,1.67,9.252c1.712,2.606,2.32,5.18,0.131,7.769C485.372,320.597,480.682,322.101,479.331,326.517z"
							/>
						<path style="fill:#ABCC7D;" d="M479.331,326.517c-1.351,4.416,2.42,8.018-0.472,12.69c-2.893,4.673-8.858,2.901-10.011,5.877
							c-1.153,2.975,0.857,6.98-1.32,9.347c-2.177,2.367-6.893,1.817-8.917,4.392c-0.067,0.085-0.129,0.173-0.187,0.264
							c-0.249,0.387-0.439,0.808-0.616,1.228c-0.222,0.527-0.418,1.065-0.611,1.602c-0.216,0.605-0.428,1.212-0.648,1.816
							c-0.229,0.629-0.468,1.256-0.73,1.874c-0.257,0.603-0.535,1.197-0.856,1.772c-0.296,0.53-0.63,1.044-1.026,1.512
							c-0.355,0.419-0.764,0.802-1.242,1.095c-0.452,0.276-0.964,0.461-1.5,0.518c-0.344,0.037-0.696,0.03-1.038-0.027
							c-0.21-0.034-0.416-0.088-0.614-0.162l33.199-80.142c3.093,1.004,4.22,4.83,3.017,10.814c-1.203,5.985-0.041,6.645,1.67,9.252
							c1.712,2.606,2.32,5.18,0.131,7.769C485.372,320.597,480.682,322.101,479.331,326.517z"/>
					</g>
					<g>
						<path style="fill:#8CB661;" d="M455.444,311.861c0.529,5.441,6.35,7.869,5.292,14.231c-1.058,6.362-8.468,6.865-8.379,10.632
							c0.088,3.767,4.146,7.367,2.823,10.883c-1.323,3.516-6.792,4.855-7.85,8.538c-0.035,0.121-0.063,0.245-0.086,0.369
							c-0.097,0.531-0.115,1.075-0.118,1.613c-0.004,0.674,0.026,1.35,0.058,2.023c0.038,0.759,0.082,1.518,0.116,2.276
							c0.035,0.791,0.058,1.582,0.052,2.373c-0.008,0.772-0.043,1.545-0.136,2.313c-0.085,0.708-0.219,1.415-0.442,2.096
							c-0.201,0.61-0.478,1.203-0.872,1.723c-0.374,0.492-0.855,0.908-1.421,1.192c-0.363,0.183-0.756,0.32-1.161,0.398
							c-0.248,0.049-0.5,0.074-0.753,0.074c-0.209,0.001-0.418-0.017-0.625-0.053c-0.107-0.019-0.214-0.042-0.319-0.067
							c-0.548-0.134-1.069-0.36-1.521-0.687c-0.508-0.369-0.91-0.85-1.216-1.382c-0.333-0.579-0.555-1.212-0.712-1.853
							c-0.175-0.714-0.271-1.442-0.328-2.172c-0.059-0.777-0.072-1.558-0.062-2.336c0.011-0.782,0.044-1.565,0.084-2.346
							c0.037-0.734,0.081-1.469,0.111-2.203c0.025-0.635,0.043-1.27,0.017-1.905c-0.019-0.484-0.057-0.977-0.193-1.447
							c-1.058-3.683-6.527-5.023-7.85-8.538c-1.323-3.516,2.735-7.116,2.823-10.883c0.089-3.767-7.321-4.269-8.379-10.632
							c-1.058-6.362,4.763-8.789,5.292-14.231c0.529-5.441-3.969-9.04-5.203-12.807c-1.235-3.767,0.617-6.362,3.704-8.538
							c3.086-2.177,4.675-2.428,6.086-9.544c1.411-7.115,4.41-10.882,8.29-10.715c3.881-0.167,6.881,3.6,8.291,10.715
							c1.411,7.116,2.999,7.367,6.086,9.544c3.087,2.176,4.939,4.771,3.704,8.538C459.413,302.821,454.915,306.42,455.444,311.861z"
							/>
						<path style="fill:#ABCC7D;" d="M455.444,311.861c0.529,5.441,6.35,7.869,5.292,14.231c-1.058,6.362-8.468,6.865-8.379,10.632
							c0.088,3.767,4.146,7.367,2.823,10.883c-1.323,3.516-6.792,4.855-7.85,8.538c-0.035,0.121-0.063,0.245-0.086,0.369
							c-0.097,0.531-0.115,1.075-0.118,1.613c-0.004,0.674,0.026,1.35,0.058,2.023c0.038,0.759,0.082,1.518,0.116,2.276
							c0.035,0.791,0.058,1.582,0.052,2.373c-0.008,0.772-0.043,1.545-0.136,2.313c-0.085,0.708-0.219,1.415-0.442,2.096
							c-0.201,0.61-0.478,1.203-0.872,1.723c-0.374,0.492-0.855,0.908-1.421,1.192c-0.363,0.183-0.756,0.32-1.161,0.398
							c-0.248,0.049-0.5,0.074-0.753,0.074v-102.34c3.881-0.167,6.881,3.6,8.291,10.715c1.411,7.116,2.999,7.367,6.086,9.544
							c3.087,2.176,4.939,4.771,3.704,8.538C459.413,302.821,454.915,306.42,455.444,311.861z"/>
					</g>
					<g>
						<polygon style="fill:#654357;" points="467.757,364.448 464.934,392.083 462.336,417.522 422.587,417.522 419.126,383.639 
							417.166,364.448 						"/>
						<path style="fill:#47293C;" d="M464.934,392.083l-2.598,25.439h-39.749l-3.461-33.883c2.002-0.431,4.202-0.257,6.151,0.399
							c3.652,1.23,6.663,3.807,9.665,6.224c3.001,2.417,6.24,4.795,10.03,5.496c4.815,0.89,9.633-1.057,14.32-2.479
							C461.099,392.732,463.023,392.276,464.934,392.083z"/>
					</g>
				</g>
			</g>
			<g>
				<rect y="417.522" style="fill:#722E2E;" width="500" height="82.478"/>
				<ellipse style="fill:#521C1C;" cx="247.736" cy="432.832" rx="196.24" ry="10.684"/>
			</g>
			<g>
				<polygon style="fill:#BCDAEA;" points="206.453,40.734 192.424,26.705 63.516,178.324 77.197,192.005 206.453,192.005 				"/>
				<g>
					<rect x="63.516" y="26.705" style="fill:#FFFFFF;" width="128.908" height="151.619"/>
					<path style="fill:#E4EFF7;" d="M72.85,36.04v132.948h110.239V36.04H72.85z"/>
					<path style="fill:#FFFFFF;" d="M183.089,94.929v74.059H72.85V85.646c1.673,0.025,3.337,0.431,4.808,1.235
						c3.613,1.976,5.841,6.23,5.405,10.325c2.186-1.825,5.464-2.163,8.159-1.245c2.696,0.92,4.837,3.311,5.453,6.091
						c2.309-2.446,6.581-2.626,9.52-0.993c-0.101-2.925,1.551-5.903,4.145-7.261c2.594-1.357,5.956-1.089,8.302,0.661
						c0.436-1.501,1.585-3.504,2.681-4.618c2.595-2.639,6.896-3.516,10.22-1.895c3.326,1.621,5.293,5.733,4.254,9.285
						c2.729-1.014,6.177-0.288,8.635,1.273c2.457,1.561,4.12,4.31,4.364,7.211c2.547-1.252,6.038-0.686,7.919,1.439
						c1.883,2.124,2.133,5.526,0.582,7.904c1.164-0.849,2.994-0.904,4.364-0.453c1.369,0.451,2.494,1.59,2.927,2.967
						c0.895-2.452,3.44-4.279,6.034-3.988c-2.286-3.06-2.556-7.296-1.027-10.796c1.529-3.501,4.766-6.136,8.423-7.235
						C179.661,95.062,181.377,94.864,183.089,94.929z"/>
					<path style="fill:#8CB661;" d="M183.089,123.196v45.792H72.85V125.37c17.78-9.299,43.136-21.798,49.143-20.775
						c6.777,1.154,21.93,12.312,31.993,19.906c4.014,3.029,7.219,5.491,8.759,6.524
						C169.556,128.583,177.829,123.854,183.089,123.196z"/>
					<circle style="fill:#FFD142;" cx="94.437" cy="58.616" r="11.436"/>
					<path style="fill:#7DAB3D;" d="M162.746,131.024c0,0-36.007,20.248-56.03,22.604c22.404-11.949,38.495-22.793,47.27-29.127
						C158.001,127.529,161.206,129.99,162.746,131.024z"/>
					<path style="fill:#7DAB3D;" d="M183.089,161.181v7.807H72.85v-15.523h17.295c6.065,0,12.058,1.316,17.565,3.858l0,0
						c5.507,2.542,11.5,3.858,17.565,3.858H183.089z"/>
				</g>
			</g>
		</g>
	</g>
</g>
<g id="OBJECTS">
	<g>
		
			<linearGradient id="SVGID_00000109023034612781661400000005922543630273787297_" gradientUnits="userSpaceOnUse" x1="140.8623" y1="227.1081" x2="140.8623" y2="172.6813">
			<stop  offset="0.1726" style="stop-color:#FFFFFF;stop-opacity:0"/>
			<stop  offset="0.7147" style="stop-color:#FFFFFF;stop-opacity:0.6512"/>
			<stop  offset="1" style="stop-color:#FFFFFF;stop-opacity:0.95"/>
		</linearGradient>
		<path style="fill:url(#SVGID_00000109023034612781661400000005922543630273787297_);" d="M168.253,159.778
			c-2.472-2.312-6.116-3.152-9.398-2.476c-1.591,0.328-3.133,0.987-4.292,2.116c-1.308,1.273-2.175,2.937-3.575,4.128
			c-2.317,1.971-5.608,2.323-8.641,2.084c-3.032-0.238-6.037-0.975-9.076-0.832c-3.038,0.143-6.275,1.397-7.704,4.082
			c-1.116,2.097-0.926,4.611-0.9,6.987c0.025,2.376-0.254,5-1.986,6.626c-2.977,2.797-8.652,1.209-11.13,4.456
			c-1.466,1.922-1.041,4.67-0.204,6.938c0.837,2.268,2.034,4.521,1.903,6.935c-0.115,2.135-1.256,4.054-2.092,6.022
			c-0.836,1.968-1.357,4.324-0.285,6.174c1.521,2.624,5.19,2.758,7.875,4.168c3.175,1.667,5.008,5.558,4.271,9.068h5.932
			c1.325-3.538-0.591-10.036-3.412-12.55c-1.424-1.268-3.419-2.459-3.357-4.365c0.053-1.638,1.663-2.751,3.164-3.408
			c1.501-0.657,3.213-1.261,3.978-2.71c0.818-1.549,0.221-3.429-0.313-5.098c-0.534-1.669-0.942-3.659,0.14-5.038
			c0.867-1.106,2.425-1.411,3.827-1.324c1.402,0.088,2.781,0.486,4.186,0.462c3.162-0.054,6.119-2.525,6.735-5.627
			c0.433-2.182-0.106-4.727,1.324-6.431c1.458-1.737,4.115-1.603,6.374-1.396c3.287,0.301,6.636,0.43,9.855-0.299
			c3.219-0.729,6.328-2.402,8.22-5.106C172.521,169.298,171.88,163.171,168.253,159.778z"/>
		<g>
			<polygon style="fill:#192A47;" points="136.46,231.704 136.364,239.971 136.151,258.454 117.446,258.872 116.71,247.476 
				115.691,231.704 			"/>
			<path style="fill:#0C1C36;" d="M136.364,239.971l-0.213,18.483l-18.705,0.418l-0.736-11.396c1.497,0.181,2.988,0.553,4.479,0.816
				c2.247,0.396,4.691,0.508,6.682-0.608c2.204-1.237,3.388-3.694,5.167-5.489C133.986,241.237,135.125,240.492,136.364,239.971z"/>
		</g>
		<g>
			<g>
				<g>
					<g>
						<path style="fill:#192A47;" d="M314.944,346.421h12.95c4.157,0,7.526,3.37,7.526,7.526v7.404h2.773v-8.604
							c0-5.026-4.074-9.1-9.1-9.1h-14.15V346.421z"/>
						<path style="fill:#281221;" d="M335.757,351.286h1.729c1.287,0,2.331,1.043,2.331,2.331v16.465
							c0,1.287-1.044,2.331-2.331,2.331h-1.729c-1.287,0-2.331-1.044-2.331-2.331v-16.465
							C333.426,352.33,334.47,351.286,335.757,351.286z"/>
						<rect x="303.631" y="350.716" style="fill:#192A47;" width="10.788" height="67.45"/>
						<polygon style="fill:#281221;" points="316.336,358.953 301.828,358.953 300.267,313.92 317.897,313.92 						"/>
						<polygon style="fill:#281221;" points="360.102,426.237 314.42,413.393 314.42,396.532 303.631,396.532 303.631,413.464 
							255.437,426.237 						"/>
					</g>
					<g>
						<path style="fill:#654357;" d="M378.994,210.763c-0.279,10.829-13.328,84.683-16.38,96.066
							c-3.054,11.383-7.775,14.716-29.987,14.716h-76.908c-5.473,0-12.345-11.666-12.178-21.469
							c0.121-7.107,3.944-13.237,14.677-13.237c25.543,0,31.096,0,31.096,0s15.827-73.298,17.77-81.35
							c1.943-8.052,7.307-13.383,16.981-13.493c0,0,32.161,0.444,39.936,0.999c0.8,0.057,1.598,0.176,2.384,0.357
							C373.237,194.911,379.243,201.051,378.994,210.763z"/>
						<path style="fill:#47293C;" d="M366.386,193.352c-4.769,1.612-9.654,5.34-10.85,13.714
							c-2.499,17.491-11.938,93.009-11.938,93.009H243.54c0.121-7.107,3.944-13.237,14.677-13.237c25.543,0,31.096,0,31.096,0
							s15.827-73.298,17.77-81.35c1.943-8.052,7.307-13.383,16.981-13.493c0,0,32.161,0.444,39.936,0.999
							C364.801,193.052,365.599,193.171,366.386,193.352z"/>
					</g>
				</g>
			</g>
			<g>
				<g>
					<g>
						<path style="fill:#FF7366;" d="M284.983,220.928c-5.642,7.366-33.313,27.408-41.027,29.824
							c-9.476,0.261-18.376-0.791-25.785-2.204c-12.213-2.325-20.374-5.624-20.374-5.624c-2.188-5.871,4.145-9.668,4.145-9.668
							l16.605-0.041l23.717-0.429c0,0,25.176-27.503,35.539-35.299C287.864,189.916,290.623,213.56,284.983,220.928z"/>
						<path style="fill:#E0244D;" d="M284.983,220.928c-5.642,7.366-28.718,28.289-41.027,29.824
							c-9.476,0.261-18.376-0.791-25.785-2.204l0.375-15.333l23.717-0.429c0,0,25.176-27.503,35.539-35.299
							C287.864,189.916,290.623,213.56,284.983,220.928z"/>
					</g>
					<g>
						<path style="fill:#F45555;" d="M187.777,240.215l-0.992,0.07c0,0,3.114,5.172,1.9,6.017c-1.214,0.844-2.111-1.055-3.747-3.8
							c-1.636-2.744-2.269-3.483-1.953-4.856c0.317-1.372,4.592-2.111,5.647-1.636C189.687,236.485,190.194,240.304,187.777,240.215
							z"/>
						<path style="fill:#FF7366;" d="M199.729,243.533c-6.106,2.092-11.689-1.747-11.952-3.317
							c-0.261-1.568,9.074-10.642,9.074-10.642c0.594,0.053,1.152,0.133,1.674,0.233
							C208.256,231.699,205.524,241.546,199.729,243.533z"/>
						<path style="fill:#FF7366;" d="M184.567,233.559c-1.087,1.285-1.384,11.118,0.247,11.266c1.631,0.148,1.779-1.285,1.977-2.619
							c0.198-1.334,0.445-5.584,0.445-5.584s4.447,0.148,5.139-0.939s0.296-2.372-0.296-2.866
							C191.485,232.324,185.654,232.274,184.567,233.559z"/>
						<path style="fill:#FF7366;" d="M187.195,233.859c0,0-0.795-1.754,1.299-2.598c2.024-0.816,6.994,0.371,7.191,0.964
							c0.198,0.593-1.186,2.421-2.57,2.421C191.732,234.646,187.195,233.859,187.195,233.859z"/>
						<path style="fill:#FF8D7C;" d="M198.102,231.332c0.291-0.811,0.226-1.647-0.534-2.056c-1.713-0.921-5.428-2.783-8.626-3.464
							c-4.32-0.92-8.8,8.44-8.84,9.2c-0.04,0.76,0.56,1.28,1.72,0.68c1.04-0.538,4.044-4.037,5.835-5.387
							c0.338-0.255,0.764-0.373,1.184-0.316c3.245,0.441,5.656,3.042,7.5,2.704C197.567,232.467,197.856,232.018,198.102,231.332z"
							/>
						<path style="fill:#F45555;" d="M198.634,238.61c0,0-1.891-0.521-5.475-0.13c-3.587,0.391-5.382,1.735-5.382,1.735
							c-0.261-1.568,8.933-11.371,8.933-11.371c0.363,0.272,1.208,0.544,1.814,0.962c1.404,1.829,0.773,2.933,0.046,5.283
							C197.722,237.829,198.634,238.61,198.634,238.61z"/>
						<path style="fill:#FF8D7C;" d="M203.906,239.849c0.094-0.034,2.355-2.109,1.002-7.382c-0.969-3.774-3.374-4.509-4.877-7.081
							c-1.503-2.572-1.937-4.209-3.14-3.774c-1.202,0.434-1.503,2.138-0.969,4.142c0.534,2.004,3.273,4.209,3.34,5.745
							c0.067,1.536-1.971,4.242-0.902,6.213C199.43,239.682,201.301,240.784,203.906,239.849z"/>
						<path style="fill:#FF8D7C;" d="M190.399,231.832c-0.004-0.005-0.009-0.009-0.013-0.014c-0.466-0.482-1.246-0.533-1.875-0.303
							c-2.073,0.759-1.506,2.361-1.177,4.169c0.353,1.943,1.727,6.637,2.566,7.388c0.984,0.88,2.066-0.224,2.203-1.222
							c0.073-0.53-0.009-1.068-0.091-1.597c-0.358-2.318-0.715-4.635-1.073-6.953C190.859,232.776,190.761,232.217,190.399,231.832z
							"/>
					</g>
				</g>
				<g>
					<path style="fill:#FF7366;" d="M249.242,360.784c0,0,0,20.853,1.34,25.62c1.341,4.766,5.362,9.235,3.575,12.959
						c-1.787,3.724-7.746,5.213-8.937,11.916c-1.192,6.703-3.128,14.598-5.213,15.64c-2.085,1.043-26.365,0-26.365,0
						s0-1.936,2.979-3.277c2.979-1.341,8.044-2.532,13.257-8.043c5.213-5.511,5.809-20.556,6.107-29.344
						c0.298-8.788-2.979-29.195-2.979-29.195L249.242,360.784z"/>
					<path style="fill:#0C1C36;" d="M286.965,265.953c0,0-51.114,23.523-52.654,32.378c-1.54,8.855-5.39,40.81-0.578,76.423
						c5.39-0.77,17.133-3.08,17.133-3.08s0.577-14.245,1.925-20.598c1.348-6.353,5.775-33.11,5.005-42.158
						c34.843-13.283,68.338-27.142,67.76-42.158C324.978,251.746,300.927,257.83,286.965,265.953z"/>
				</g>
				<g>
					<path style="fill:#FF8D7C;" d="M250.754,373.881c0,0-10.238,14.42-17.461,21.948c-7.223,7.528-10.275,12.92-12.004,18.108
						c-1.729,5.188,1.424,9.665-2.136,14.141c-3.561,4.476-8.24,0.814-12.106,0.305c-3.866-0.509-5.9-0.61-9.359,0
						c-3.459,0.61-11.699,1.933-17.295-0.712c-5.595-2.645-10.58-7.528-8.647-8.952c1.933-1.424,4.781,1.831,8.647,1.628
						c3.866-0.203,19.431-3.154,22.585-5.901c3.154-2.747,20.245-44.457,24.416-54.223
						C237.972,352.695,251.022,360.275,250.754,373.881z"/>
					<path style="fill:#192A47;" d="M344.789,276.009c0,0,0.991,13.123-9.733,21.911c-10.724,8.788-23.831,13.256-30.384,15.788
						c-6.554,2.532-31.576,10.128-36.789,14.596c-2.383,14.299-9.235,33.959-17.129,45.577c-4.915-8.639-9.681-12.66-23.98-13.405
						c7.298-25.767,8.937-28.299,10.277-37.534c1.34-9.234,5.064-13.703,8.043-15.639c2.979-1.936,15.043-7.894,24.427-15.937
						c9.384-8.043,29.64-26.661,46.619-25.32C333.119,267.387,341.713,270.929,344.789,276.009z"/>
				</g>
				<g>
					<path style="fill:#EF4563;" d="M288.858,191.656c0,0-8.78,3.241-11.171,5.831c-3.09,3.348-2.391,10.892-0.863,15.21
						c0,0,12.057,41.046,13.134,44.039c-2.754,8.261-2.993,9.218-2.993,9.218s26.218-1.197,57.824,10.056
						c-1.197-15.922-3.711-20.352-5.268-29.93c-1.556-9.577,1.197-34.838-3.232-44.056c-4.43-9.218-9.601-11.958-20.244-13.102
						C302.409,194.242,292.188,193.259,288.858,191.656z"/>
				</g>
				<g>
					<path style="fill:#FF8D7C;" d="M265.258,239.066l-12.571-0.426c-1.163-0.013-2.273-0.49-3.084-1.324
						c-1.87-1.922-5.235-4.543-7.668-6.146c-3.431-2.259-5.69-1.841-9.455-1.004c-3.765,0.837-8.284,2.427-8.033,3.347
						c0.251,0.92,0.586,0.753,2.092,0.669c1.506-0.084,6.192-1.339,7.531-1.423c1.339-0.084,2.594,0.669,2.594,0.669
						s-10.208,6.61-10.459,7.949c-0.251,1.339,0.92,1.423,2.343,0.92c1.422-0.502,7.865-4.853,7.865-4.853l1.59-0.669
						c0,0-8.786,6.443-9.455,7.782s0.418,1.59,1.59,1.506c1.171-0.084,7.112-4.769,9.79-5.857c-2.929,2.594-7.531,5.69-7.112,6.861
						c0.418,1.171,1.423,0.753,2.259,0.502c0.837-0.251,5.522-3.933,6.108-3.933c0.586,0,3.07,4.635,9.094,6.978
						c6.024,2.343,16.938,3.836,16.938,3.836S271.199,244.003,265.258,239.066z"/>
					<path style="fill:#E0244D;" d="M265.258,239.066l1.956,15.386c0,0,27.382,4.433,35.205,2.347
						c7.823-2.086,31.424-37.031,34.032-48.114c2.608-11.083-6.911-18.907-12.387-16.69c-5.476,2.217-27.643,42.246-30.251,46.028
						C286.251,238.414,265.258,239.066,265.258,239.066z"/>
				</g>
				<g>
					<path style="fill:#192A47;" d="M314.065,155.647c-1.596,0.711-3.47,1.111-5.551,1.111c-5.736,0-10.498-6.09-9.481-12.059
						c0.327-1.936,1.267-3.859,2.972-5.558c5.375-5.35,16.17-0.62,17.567,5.839C320.585,149.668,318.301,153.758,314.065,155.647z"
						/>
					<path style="fill:#0C1C36;" d="M314.065,155.647c-1.596,0.711-3.47,1.111-5.551,1.111c-5.736,0-10.498-6.09-9.481-12.059
						c2.007-0.064,5.654,0.192,9.392,2.311C311.58,148.8,313.208,152.526,314.065,155.647z"/>
					<path style="fill:#192A47;" d="M304.456,181.518c2.083-5.219,3.67-5.012,6.982-10.67c4.665-7.969-1.656-18.285-6.969-21.321
						c-5.2-2.971-13.068-3.455-19.941,1.104c-6.873,4.559-10.648,11.824-9.88,23.608c0.542,8.318,6.45,16.999,6.45,16.999
						l10.632-11.081C291.731,180.157,300.993,181.01,304.456,181.518z"/>
					<path style="fill:#FF8D7C;" d="M316.045,188.921c-4.269,7.686-11.375,17.782-19.285,17.31
						c-5.313-0.317-7.902-14.576-7.902-14.576l1.76-0.531c0.837-0.253,1.526-0.886,1.78-1.723c0.112-0.368,0.14-0.747,0.052-1.079
						l-0.478-1.82l-1.964-7.457c0,0,10.982-8.123,14.316-6.82c0,0,0.048,1.027,0.203,2.567c0.295,2.899,0.976,7.622,2.455,10.74
						c0.53,1.116,1.518,1.941,2.714,2.25C311.827,188.334,315.028,188.782,316.045,188.921z"/>
					<path style="fill:#FF7366;" d="M304.527,174.793c-0.505,3.637-1.235,6.086-5.351,8.796c-2.678,1.763-5.341,2.319-7.204,2.913
						l-1.964-7.457c0,0,10.982-8.123,14.316-6.82C304.324,172.226,304.372,173.252,304.527,174.793z"/>
					<polygon style="fill:#192A47;" points="279.555,167.744 282.302,167.832 282.355,168.695 279.872,168.518 					"/>
					<path style="fill:#FF8D7C;" d="M282.266,162.657c-1.021,1.183-1.411,2.785-1.155,4.326c0.29,1.747,0.763,4.541,1.149,6.522
						c0.6,3.086,1.414,7.029,4.072,9.344c2.657,2.315,6.001,1.3,9.258-0.129c4.029-1.672,5.829-3.815,7.201-7.672
						c1.372-3.857,1.5-6.858,1.5-6.858s-3.643-1.586-4.715-3.729c-1.072-2.143-0.729-6.386-0.729-6.386s-0.643,1.543-6.429,1.757
						C287.933,159.998,284.349,160.241,282.266,162.657z"/>
					<path style="fill:#192A47;" d="M288.927,167.409c-0.326-1.798-5.309-1.649-8.022-1.763c-0.631-0.027-1.543,0.288-1.668,1.263
						c-0.126,0.978,0.4,1.814,1.09,2.545c0.862,0.908,2.643,2.839,4.595,3.134c1.95,0.295,3.125-1.522,3.607-2.589
						C289.011,168.931,289.028,167.969,288.927,167.409z M287.677,170.134c-0.351,0.683-1.178,1.978-2.853,1.681
						c-1.673-0.295-3.781-2.52-4.358-3.201c-0.579-0.683-0.786-1.25-0.475-1.817c0,0,0.101-0.205,0.453-0.319
						c0.351-0.114,4.216,0.165,5.311,0.301c1.094,0.136,2.227,0.423,2.459,0.835C288.591,168.29,288.028,169.453,287.677,170.134z"
						/>
					<path style="fill:#F45555;" d="M288.164,177.216c0.304,0.472,1.365,1.14,3.069,0.978c2.509-0.239,3.373-2.901,3.373-2.901
						S292.205,177.053,288.164,177.216z"/>
					<path style="fill:#F45555;" d="M289.148,166.769c0.365-0.122,0.417,1.886,0.488,3.709c0.033,0.85-0.53,1.609-1.353,1.823
						c-0.807,0.209-1.484,0.391-1.524,0.856c-0.044,0.512,1.336,1.685,2.014,2.034c-1.89-0.103-3-1.377-2.918-2.281
						c0.072-0.798,1.278-1.23,2.149-1.478c0.47-0.134,0.651-0.585,0.756-1.062C289.087,168.884,288.784,166.89,289.148,166.769z"/>
					<path style="fill:#FF7366;" d="M288.771,173.72c-0.334-0.013-0.27,0.265,0.157,0.59c0.492,0.374,0.767,0.571,1.043,0.374
						C290.247,174.488,289.814,173.76,288.771,173.72z"/>
					<circle style="fill:#192A47;" cx="293.836" cy="168.926" r="1.511"/>
					<circle style="fill:#192A47;" cx="285.541" cy="169.237" r="1.439"/>
					<path style="fill:#192A47;" d="M299.473,165.664c-1.44-0.16-6.785,0.201-8.326,0.464c-1.031,0.174-1.66,0.976-1.351,1.861
						c0.361,1.036,1.925,3.77,3.834,4.344c2.716,0.818,6.826-3.742,7.181-4.504C301.185,167.027,300.915,165.824,299.473,165.664z
						 M299.981,167.848c-0.369,0.634-3.392,2.981-4.154,3.344c-0.761,0.361-1.429,0.653-2.467,0.134
						c-1.038-0.519-2.016-2.206-2.424-2.755c-0.668-0.903-0.229-1.649,0.648-1.785c0.735-0.113,6.828-0.474,7.544-0.406
						C299.844,166.449,300.35,167.216,299.981,167.848z"/>
					<polygon style="fill:#192A47;" points="300.325,168.043 305.317,168.787 305.506,167.968 300.517,167.203 					"/>
					<polygon style="fill:#192A47;" points="288.559,168.383 290.308,168.383 290.308,167.603 288.436,167.603 					"/>
					<path style="fill:#192A47;" d="M291.336,164.792l6.963,0.379c0,0-0.983-1.448-3.591-1.616
						C292.234,163.396,291.336,164.792,291.336,164.792z"/>
					<path style="fill:#192A47;" d="M288.069,164.886l-6.225,0.379c0,0,0.879-1.448,3.211-1.616
						C287.266,163.49,288.069,164.886,288.069,164.886z"/>
					<path style="fill:#FF7366;" d="M292.964,179.569c-0.91-0.747-3.447,0.252-2.858,1.093
						C290.694,181.502,294.14,180.536,292.964,179.569z"/>
					<path style="fill:#FF8D7C;" d="M303.143,171.736c-0.127,1.065,0.872,1.923,1.901,1.621c0.082-0.024,0.167-0.05,0.255-0.079
						c2.964-0.96,4.78-3.069,5.255-5.867c0.508-2.989-2.758-3.387-4.496-1.15c-1.907,2.453-2.699,3.663-2.699,3.663L303.143,171.736
						z"/>
					<path style="fill:#F45555;" d="M309.1,165.936c-1.109-0.577-3.312,1.319-3.471,2.48c-0.092,0.69,0.733,1.356-0.15,1.764
						c-0.232,0.107-0.762,0.275-0.996,0.448c-0.197,0.145-0.355,0.245-0.465,0.47c-0.192,0.389-0.166,0.949,0.306,1.128
						c0.555,0.211,1.313-0.369,1.746-0.62c0.212-0.123,0.028-0.415-0.192-0.315c-0.262,0.119-0.566,0.322-0.85,0.364
						c-0.412,0.062-0.793-0.063-0.249-0.55c0.319-0.286,0.768-0.333,1.148-0.488c0.432-0.176,0.761-0.472,0.678-0.975
						c-0.036-0.215-0.209-0.365-0.3-0.554c-0.11-0.229-0.163-0.509-0.126-0.761c0.041-0.279,0.217-0.548,0.48-0.646
						c0.805-0.298,0.799,0.795,0.668,1.265c-0.127,0.454-0.259,0.937-0.411,1.382c-0.021,0.061,0.072,0.083,0.098,0.027
						c0.318-0.703,0.983-1.516,0.914-2.315c-0.031-0.365-0.204-0.784-0.514-0.978c0.407-0.404,1.399-1.19,1.847,0.012
						c0.154,0.414-0.288,1.687-0.513,2.319C309.418,168.591,310.566,166.699,309.1,165.936z"/>
					<path style="fill:#EF4563;" d="M311.853,153.211c0,0,8.806,1.879,9.074,2.416c0.268,0.537,0.43,1.557-1.02,1.181
						c-1.45-0.376-8.698-2.631-8.698-2.631S310.457,153.103,311.853,153.211z"/>
					<path style="fill:#FF7366;" d="M291.305,195.193l18.98-0.756c0,0-2.877,1.186-9.843,1.521
						C294.935,196.222,291.305,195.193,291.305,195.193z"/>
				</g>
			</g>
		</g>
		<g>
			<polygon style="fill:#281221;" points="120.349,199.158 121.942,196.655 205.653,197.154 222.994,252.919 202.534,253.917 			"/>
			<polygon style="fill:#654357;" points="120.349,199.158 203.578,199.158 220.223,251.249 137.974,251.249 			"/>
			<rect x="137.974" y="251.249" style="fill:#47293C;" width="82.249" height="5.801"/>
			<rect x="220.223" y="251.249" style="fill:#281221;" width="50.24" height="5.801"/>
			<path style="fill:#281221;" d="M174.759,225.308c1.14,3.76-0.951,6.807-4.67,6.807c-3.719,0-7.658-3.048-8.798-6.807
				c-1.14-3.76,0.951-6.807,4.67-6.807C169.68,218.501,173.619,221.548,174.759,225.308z"/>
		</g>
		<g>
			
				<rect x="66.295" y="341.308" transform="matrix(-1.836970e-16 1 -1 -1.836970e-16 492.5323 198.2056)" style="fill:#281221;" width="161.736" height="8.121"/>
			<rect x="78.989" y="262.022" style="fill:#654357;" width="196.016" height="44.875"/>
			<rect x="275.005" y="262.022" style="fill:#47293C;" width="72.223" height="44.875"/>
			<rect x="71.797" y="256.733" style="fill:#281221;" width="279.219" height="8.121"/>
			
				<rect x="-7.473" y="344.124" transform="matrix(-1.836970e-16 1 -1 -1.836970e-16 424.0424 272.3263)" style="fill:#281221;" width="166.661" height="8.121"/>
			
				<rect x="192.32" y="344.124" transform="matrix(-1.836970e-16 1 -1 -1.836970e-16 623.8351 72.5335)" style="fill:#281221;" width="166.661" height="8.121"/>
			
				<rect x="266.088" y="341.308" transform="matrix(-1.836970e-16 1 -1 -1.836970e-16 692.325 -1.5871)" style="fill:#281221;" width="161.736" height="8.121"/>
		</g>
		<path style="fill:#281221;" d="M428.202,345.677h-67.468v12.707h3.891l0.237,4.053l0.098,1.662l0.242,4.149l0.267,4.581
			l0.172,2.952l0.167,2.86l0.133,2.286v0.002l0.135,2.295l0.247,4.236l0.092,1.575l0.208,3.576l0.06,1.006l0.325,5.528l0.016,0.284
			l0.268,4.581l0.016,0.284l0.322,5.528l0.267,4.584l0.091,1.571l0.247,4.241l0.267,4.581l0.254,4.335h3.623h2.789h5.976h2.236
			h0.553h2.236h5.976h2.236h0.551h2.236h5.976h2.236h0.553h2.236h5.976h2.236h0.553h2.236h1.008l0.062-1.07l0.213-3.624l0.089-1.529
			l0.178-3.052l0.203-3.479l0.299-5.151l0.103-1.765l0.279-4.767l0.062-1.043v-0.002l0.238-4.104l0.027-0.478v-0.002l0.341-5.809
			l0.014-0.242l0.302-5.151v-0.002l0.29-5l0.089-1.529l0.302-5.151l0.217-3.713l0.165-2.821l0.103-1.758v-0.002l0.197-3.388
			l0.142-2.423l0.216-3.694h3.896V345.677z M419.901,375.038l-0.82-0.82l0.92-0.92L419.901,375.038z M419.025,390.012l-0.087,1.5
			v0.002l-2.281,2.28l-3.076-3.076l3.075-3.075L419.025,390.012L419.025,390.012z M418.257,403.194l-1.6,1.6l-3.075-3.075
			l3.075-3.075l1.763,1.763L418.257,403.194z M417.573,414.876l-0.918,0.918l-3.075-3.075l3.075-3.075l1.156,1.156L417.573,414.876z
			 M416.942,425.703h-1.376l-1.984-1.984l3.075-3.075l0.549,0.549L416.942,425.703z M404.565,425.703l-1.984-1.984l3.075-3.075
			l3.075,3.075l-1.984,1.984H404.565z M393.564,425.703l-1.983-1.983l3.075-3.075l3.075,3.075l-1.983,1.983H393.564z
			 M382.566,425.703l-1.984-1.984l3.075-3.075l3.075,3.075l-1.984,1.984H382.566z M371.334,414.474l-0.192-3.315l1.514-1.515
			l3.075,3.075l-3.076,3.076L371.334,414.474z M370.534,400.763l2.12-2.12l3.076,3.076l-3.075,3.075l-2.003-2.003L370.534,400.763z
			 M369.59,384.578l0.641,0.641l-0.57,0.57L369.59,384.578z M369.055,375.394l-0.146-2.499l1.322,1.323L369.055,375.394
			L369.055,375.394z M368.227,361.213l2.004,2.004l-1.784,1.784L368.227,361.213z M405.657,415.794l-3.075-3.075l3.075-3.075
			l3.075,3.075L405.657,415.794z M411.156,415.143l3.075,3.075l-3.075,3.075l-3.075-3.075L411.156,415.143z M394.656,404.794
			l-3.076-3.075l3.076-3.076l3.075,3.076L394.656,404.794z M400.156,404.144l3.076,3.075l-3.075,3.075l-3.076-3.075L400.156,404.144
			z M392.231,407.219l-3.075,3.075l-3.075-3.075l3.075-3.075L392.231,407.219z M389.156,399.294l-3.075-3.075l3.075-3.076
			l3.075,3.075L389.156,399.294z M397.081,396.219l3.075-3.075l3.075,3.076l-3.075,3.075L397.081,396.219z M394.656,393.794
			l-3.075-3.075l3.075-3.075l3.075,3.075L394.656,393.794z M389.156,360.143l3.076,3.076l-3.076,3.076l-3.076-3.076L389.156,360.143
			z M383.655,360.794l-2.41-2.41h4.82L383.655,360.794z M392.246,358.384h4.821l-2.41,2.41L392.246,358.384z M394.656,365.643
			l3.076,3.076l-3.076,3.075l-3.076-3.075L394.656,365.643z M386.732,368.718l-3.076,3.076l-3.075-3.075l3.076-3.076
			L386.732,368.718z M389.156,371.142l3.075,3.076l-3.076,3.076l-3.075-3.075L389.156,371.142z M386.731,379.718l-3.076,3.076
			l-3.075-3.075l3.076-3.076L386.731,379.718z M389.155,382.142l3.076,3.076l-3.075,3.075l-3.076-3.076L389.155,382.142z
			 M397.081,385.218l3.075-3.075l3.076,3.076l-3.075,3.075L397.081,385.218z M394.656,382.793l-3.076-3.076l3.075-3.076l3.076,3.076
			L394.656,382.793z M397.08,374.217l3.075-3.076l3.076,3.076l-3.075,3.075L397.08,374.217z M402.58,368.718l3.076-3.076
			l3.076,3.076l-3.076,3.076L402.58,368.718z M400.156,366.294l-3.076-3.076l3.076-3.076l3.076,3.076L400.156,366.294z
			 M403.247,358.384h4.82l-2.41,2.41L403.247,358.384z M375.066,358.384l-2.41,2.41l-2.409-2.41H375.066z M378.156,360.141
			l3.076,3.076l-3.076,3.076l-3.076-3.076L378.156,360.141z M375.731,368.718l-3.076,3.076l-3.076-3.076l3.076-3.076
			L375.731,368.718z M378.156,371.143l3.075,3.075l-3.076,3.076l-3.075-3.075L378.156,371.143z M375.731,379.719l-3.076,3.076
			l-3.075-3.075l3.076-3.076L375.731,379.719z M378.156,382.143l3.075,3.075l-3.076,3.076l-3.075-3.075L378.156,382.143z
			 M383.655,387.642l3.076,3.076l-3.076,3.076l-3.076-3.076L383.655,387.642z M381.231,396.219l-3.075,3.075l-3.076-3.076
			l3.075-3.075L381.231,396.219z M383.656,398.644l3.075,3.075l-3.075,3.075l-3.075-3.075L383.656,398.644z M381.231,407.22
			l-3.075,3.075l-3.075-3.075l3.075-3.075L381.231,407.22z M383.655,409.644l3.075,3.075l-3.075,3.075l-3.075-3.075L383.655,409.644
			z M389.156,415.144l3.075,3.075l-3.075,3.075l-3.075-3.075L389.156,415.144z M391.581,412.719l3.075-3.075l3.075,3.075
			l-3.075,3.075L391.581,412.719z M400.156,415.144l3.075,3.075l-3.075,3.075l-3.075-3.075L400.156,415.144z M408.081,407.22
			l3.075-3.075l3.075,3.075l-3.075,3.075L408.081,407.22z M405.656,404.795l-3.075-3.076l3.075-3.075l3.076,3.076L405.656,404.795z
			 M408.081,396.219l3.075-3.075l3.076,3.076l-3.075,3.075L408.081,396.219z M405.657,393.794l-3.076-3.076l3.075-3.075l3.076,3.076
			L405.657,393.794z M408.081,385.218l3.075-3.075l3.076,3.076l-3.075,3.075L408.081,385.218z M405.657,382.794l-3.076-3.076
			l3.075-3.075l3.076,3.076L405.657,382.794z M408.081,374.218l3.076-3.076l3.076,3.076l-3.076,3.076L408.081,374.218z
			 M413.581,368.718l3.076-3.076l3.076,3.076l-3.076,3.076L413.581,368.718z M411.156,366.293l-3.076-3.076l3.076-3.076l3.076,3.076
			L411.156,366.293z M414.246,358.384h4.819l-2.41,2.409L414.246,358.384z M369.928,390.371l2.727-2.727l3.075,3.075l-3.075,3.075
			l-2.684-2.684L369.928,390.371z M378.156,415.143l3.075,3.075l-3.075,3.075l-3.075-3.075L378.156,415.143z M419.081,385.219
			l0.239-0.239l-0.028,0.45L419.081,385.219z M419.62,379.832l-2.963,2.963l-3.076-3.076l3.076-3.076l2.974,2.974l0,0l-0.011,0.213
			V379.832z M420.507,364.643l-1.426-1.425l1.602-1.602L420.507,364.643z M371.99,425.703l-0.242-4.152l0.908-0.908l3.075,3.075
			l-1.984,1.984H371.99z"/>
	</g>
</g>
</svg>
